# xmcd
#
# Track frame offsets: 
#        183
#        64638
#        92623
#        168065
#        189268
#        237183
#        248155
#
# Disc length: 3676 seconds
#
# Revision: 6
# Processed by: cddbd v1.5.2PL0 Copyright (c) Steve Scherf et al.
# Submitted via: ExactAudioCopy v0.95b4
#
DISCID=490e5a07
DTITLE=Berlin Philharmoniker HERBERT VON KARAJAN - Symphonie Fantastiq
DTITLE=ue - La Damnation de Faust
DYEAR=1965
DGENRE=Klassik
TTITLE0=Symphonie fantastique, Op. 14 - I. Rêveries - Passions
TTITLE1=Symphonie fantastique, Op. 14 - II. Un bal
TTITLE2=Symphonie fantastique, Op. 14 - III. Scène aux champs
TTITLE3=Symphonie fantastique, Op. 14 - IV. Marche au supplice
TTITLE4=Symphonie fantastique, Op. 14 - V. Songe d'une nuit du Sabbat
TTITLE5=La Damnation de Faust, Op. 24 - Ballet des sylphes
TTITLE6=La Damnation de Faust, Op. 24 - Menuet des follets
EXTD=conducted by Herbert von Karajan\n
EXTT0=1965
EXTT1=1965
EXTT2=1965
EXTT3=1965
EXTT4=1965
EXTT5=1972
EXTT6=1972
PLAYORDER=
